<svg xmlns="http://www.w3.org/2000/svg" width="280" height="210.001" viewBox="0 0 280 210.001"><defs><style>.cls-1{fill:#fff;}.cls-2{fill:#eee;}</style></defs><g id="レイヤー_2" data-name="レイヤー 2"><g id="レイヤー_1-2" data-name="レイヤー 1"><g id="レイヤー_2-2" data-name="レイヤー 2"><g id="レイヤー_1-2-2" data-name="レイヤー 1-2"><path class="cls-1" d="M73.766,210H0V0H280V210H267.215c-1.555-4.874-3.312-9.7-4.579-14.643a16.217,16.217,0,0,1-.251-7.38c1.393-6.052,1.173-10.161-1.262-15.228a27.132,27.132,0,0,1-2.484-7.081q-2.342-13.979-4.175-28.038c-.215-1.675,1.019-3.485,1.21-5.272a56.2,56.2,0,0,0,.588-11.02c-.139-1.515-2.157-3.075-3.637-4.2-2.219-1.682-2.565-3.151-.5-5.163,2.84-2.767,5.581-5.637,9.158-9.268-13.2.207-25.956-4.385-36.012,6.519l11.846,6.782-1.136,11c-3.684,1.4-7.615,2.733-11.4,4.393-4.1,1.8-6.284.429-7.183-3.7-1.443-6.622-3.018-13.218-4.272-19.875a85.983,85.983,0,0,1-.861-9.119c10.733,0,20.667-.093,30.6.035,5.957.077,6,.12,5.4-5.6-.227-2.169-.037-4.38-.037-7.308H218.69c.588-5-3.309-4.933-5.612-6.113-2.852-1.462-3.749-2.91-.957-4.973a9.33,9.33,0,0,1,5.029-2.017c6.973-.017,13.98.833,20.9.346,2.946-.206,5.926-2.636,8.494-4.578,1.853-1.4,3.027-3.687,4.55-5.54A41.758,41.758,0,0,1,254.6,59c1.512-1.423,3.3-3.866,4.8-3.751,5.452.417,7.5-4.181,12.415-6.6l-7.863-.86a17.964,17.964,0,0,0,.895-2.506,28.657,28.657,0,0,0,.231-3.152c-17.7,5.244-35.394,4.351-52.874,3.091C166.475,41.922,120.96,36.557,76.14,26.6,51.694,21.172,27.039,16.221,4.293,5.04c-.476-.234-1.167-.03-2.714-.03,1.614,3.063,2.286,6.606,4.275,7.653,4.575,2.408,5.41,6.3,6.309,10.53.93,4.376,2.053,8.712,2.962,13.093.578,2.782,1.493,4.879,4.806,5.4,5.234.819,10.38,2.2,15.616,2.993,3.087.468,4.9,1.769,5.138,4.9.221,2.855,1.852,3.764,4.55,4.162,12.481,1.842,24.937,3.85,37.382,5.92a6.716,6.716,0,0,1,4.044,1.965c1.364,1.824,2.066,4.14,3.159,6.492-2.691,1.161-6.681,1.684-8.344,3.927-1.756,2.368-3.108,2.265-5.216,1.984q-18.446-2.457-36.919-4.9c.437,3.607,1.4,7.19,1.157,10.692-.272,3.991,1.185,5.2,4.877,5.477Q64.5,86.758,83.588,88.642A18.654,18.654,0,0,1,88.537,90.3C86.6,94.45,84.7,97.428,84,100.665c-.221,1.034,2.777,2.753,4.842,4.657-.428,3.391-.748,7.524-1.5,11.577-1.664,8.97-1.751,9.084-10.769,9.189-3.358.039-5.5.758-4.808,4.3,1.989,2.692,4.856,5.657,4.781,8.547C75.931,162.63,74.766,186.313,73.766,210Z"/><path class="cls-2" d="M73.766,210c1-23.687,2.165-47.37,2.783-71.066.075-2.89-2.792-5.855-4.781-8.547-.694-3.541,1.45-4.26,4.808-4.3,9.018-.1,9.105-.219,10.769-9.189.753-4.053,1.073-8.186,1.5-11.577-2.065-1.9-5.063-3.623-4.842-4.657.693-3.237,2.6-6.215,4.533-10.364a18.656,18.656,0,0,0-4.949-1.659Q64.5,86.769,45.375,85.3c-3.692-.281-5.149-1.486-4.877-5.477.239-3.5-.72-7.085-1.157-10.692q18.485,2.451,36.919,4.9c2.108.281,3.46.384,5.216-1.984,1.663-2.243,5.653-2.766,8.344-3.927-1.093-2.352-1.795-4.668-3.159-6.492a6.716,6.716,0,0,0-4.044-1.965c-12.445-2.07-24.9-4.078-37.382-5.92-2.7-.4-4.329-1.307-4.55-4.162-.242-3.134-2.051-4.435-5.138-4.9-5.236-.793-10.382-2.174-15.616-2.993-3.313-.518-4.228-2.615-4.806-5.4-.909-4.381-2.032-8.717-2.962-13.093-.9-4.234-1.734-8.122-6.309-10.53C3.865,11.616,3.193,8.073,1.579,5.01c1.547,0,2.238-.2,2.714.03C27.039,16.221,51.694,21.172,76.14,26.6c44.82,9.955,90.335,15.32,136.066,18.616,17.48,1.26,35.169,2.153,52.874-3.091a28.657,28.657,0,0,1-.231,3.152,17.964,17.964,0,0,1-.895,2.506l7.863.86c-4.914,2.421-6.963,7.019-12.415,6.6-1.5-.115-3.291,2.328-4.8,3.751a41.778,41.778,0,0,0-3.5,3.961c-1.523,1.853-2.7,4.138-4.55,5.54-2.568,1.942-5.548,4.372-8.494,4.578-6.923.487-13.93-.363-20.9-.346a9.33,9.33,0,0,0-5.029,2.017c-2.792,2.063-1.9,3.511.957,4.973,2.3,1.18,6.2,1.113,5.612,6.113h29.538c0,2.928-.19,5.139.037,7.308.6,5.717.555,5.674-5.4,5.6-9.931-.128-19.865-.035-30.6-.035a85.983,85.983,0,0,0,.861,9.119c1.254,6.657,2.829,13.253,4.272,19.875.9,4.129,3.083,5.5,7.183,3.7,3.785-1.66,7.716-2.989,11.4-4.393.423-4.1.825-7.984,1.136-11l-11.846-6.782c10.056-10.9,22.817-6.312,36.012-6.519-3.577,3.631-6.318,6.5-9.158,9.268-2.065,2.012-1.719,3.481.5,5.163,1.48,1.123,3.5,2.683,3.637,4.2a56.2,56.2,0,0,1-.588,11.02c-.191,1.787-1.425,3.6-1.21,5.272q1.807,14.055,4.175,28.038a27.132,27.132,0,0,0,2.484,7.081c2.435,5.067,2.655,9.176,1.262,15.228a16.217,16.217,0,0,0,.251,7.38c1.267,4.947,3.024,9.769,4.579,14.643H244.281V189.109L229.912,190.8,236.3,210H210.377V192.468l-7.956.787L206.389,210H192.428c-.8-15.145-1.52-30.294-2.439-45.432-.483-7.96-1.282-15.9-2.035-23.843a4.4,4.4,0,0,0-1.241-2.92,76.861,76.861,0,0,0-6.662-3.941c6.306-7.255,14.8-3.57,22.634-4.778-.695-9.6-1.627-18.667-1.881-27.75-.11-3.918-1.3-5-5.087-5.208-16.577-.923-33.135-2.194-49.7-3.281q-19.635-1.288-39.283-2.38c-1.228-.066-2.506.8-3.76,1.226,1.212.75,2.355,1.97,3.649,2.159,3.509.512,7.082.588,11.3.884-2.266,3.539-3.586,7.058-6.09,9.194-4.448,3.8-5.135,8.189-5,13.62.778,30.812,1.258,61.632,1.84,92.45Zm165.449-71.651c-6.01,2.238-12.119,3.316-16.423,6.689-1.781,1.4-.035,7.771.7,11.771,1.356,7.349,3.154,14.616,4.8,22.075l13.089-1.976C243.392,163.839,240.2,151.56,239.215,138.349ZM111.559,77.369l31.616,2.418a39.968,39.968,0,0,1-.531-5.84c.355-4.84-2.279-6.661-6.616-7.305-6.855-1.017-13.738-1.984-20.5-3.481-5.687-1.26-10.1-.54-12.621,5.3C104.654,72.4,111.871,70.851,111.559,77.369Zm86.885,1.184c-2.04-10-9.879-8.223-16.515-8.91-1.65-.171-3.306-.278-4.96-.4-11.888-.851-12.431-3.794-12.592,11.108,0,.265.3.533.835,1.439C176.209,80.79,188.2,87.662,198.444,78.553Zm5.184,71.876c-1.85,1.535-4.55,2.8-4.476,3.869.661,9.6,1.811,19.161,2.863,29.171l6.294-1.252C206.765,171.735,205.287,161.7,203.628,150.429Zm-4.862-8.508c5.492-1.688,6.006-3.25,2.634-10.5C201.7,135.984,194.576,136.673,198.766,141.921Z"/><path class="cls-1" d="M108.667,210c-.582-30.818-1.062-61.638-1.84-92.45-.137-5.431.55-9.824,5-13.62,2.5-2.136,3.824-5.655,6.09-9.194-4.214-.3-7.787-.372-11.3-.884-1.294-.189-2.437-1.409-3.649-2.159,1.254-.431,2.532-1.292,3.76-1.226q19.649,1.059,39.283,2.38c16.569,1.087,33.127,2.358,49.7,3.281,3.786.211,4.977,1.29,5.087,5.208.254,9.083,1.186,18.147,1.881,27.75-7.831,1.208-16.328-2.477-22.634,4.778a76.861,76.861,0,0,1,6.662,3.941,4.4,4.4,0,0,1,1.241,2.92c.753,7.941,1.552,15.883,2.035,23.843.919,15.138,1.638,30.287,2.439,45.432Z"/><path class="cls-1" d="M236.3,210l-6.391-19.2,14.369-1.7V210Z"/><path class="cls-1" d="M206.389,210l-3.968-16.745,7.956-.787V210Z"/><path class="cls-1" d="M239.215,138.349c.989,13.211,4.177,25.49,2.172,38.559L228.3,178.884c-1.649-7.459-3.447-14.726-4.8-22.075-.738-4-2.484-10.375-.7-11.771C227.1,141.665,233.205,140.587,239.215,138.349Z"/><path class="cls-1" d="M111.559,77.369c.312-6.518-6.905-4.965-8.648-8.91,2.52-5.838,6.934-6.558,12.621-5.3,6.758,1.5,13.641,2.464,20.5,3.481,4.337.644,6.971,2.465,6.616,7.3a39.968,39.968,0,0,0,.531,5.84Z"/><path class="cls-1" d="M198.444,78.553c-10.247,9.109-22.235,2.237-33.232,3.241-.538-.906-.838-1.174-.835-1.439.161-14.9.7-11.959,12.592-11.108,1.654.118,3.31.225,4.96.4C188.565,70.33,196.4,68.556,198.444,78.553Z"/><path class="cls-1" d="M203.628,150.429c1.659,11.268,3.137,21.306,4.681,31.788l-6.294,1.252c-1.052-10.01-2.2-19.574-2.863-29.171C199.078,153.226,201.778,151.964,203.628,150.429Z"/><path class="cls-1" d="M198.766,141.921c-4.19-5.248,2.936-5.937,2.634-10.5C204.772,138.671,204.258,140.233,198.766,141.921Z"/></g></g></g></g></svg>